<svg width="1200" height="720" viewBox="0 0 1200 720" fill="none" xmlns="http://www.w3.org/2000/svg">
  <rect width="1200" height="720" fill="#030611"/>
  <circle cx="260" cy="180" r="280" fill="url(#g1)" opacity=".54"/>
  <circle cx="930" cy="370" r="360" fill="url(#g2)" opacity=".48"/>
  <path d="M80 565C225 498 318 583 450 512C602 431 683 268 844 315C988 357 1030 430 1120 390" stroke="#A5FFD6" stroke-width="2" opacity=".38"/>
  <path d="M80 260C230 198 340 265 506 218C670 171 778 104 932 170C1025 209 1060 229 1120 210" stroke="#7CA7FF" stroke-width="2" opacity=".28"/>
  <g opacity=".10">
    <path d="M0 0H1200V720H0z" fill="url(#grid)"/>
  </g>
  <rect x="76" y="76" width="1048" height="568" rx="42" fill="rgba(255,255,255,.035)" stroke="rgba(255,255,255,.13)"/>
  <rect x="126" y="126" width="346" height="410" rx="28" fill="rgba(255,255,255,.055)" stroke="rgba(255,255,255,.16)"/>
  <g transform="translate(166 166)">
    <rect width="266" height="56" rx="18" fill="#A5FFD6" fill-opacity=".15" stroke="#A5FFD6" stroke-opacity=".38"/>
    <text x="24" y="36" fill="#EAF8FF" font-family="Inter, Arial" font-size="20" font-weight="800">DATA PIPELINE</text>
    <rect y="88" width="266" height="56" rx="18" fill="white" fill-opacity=".05" stroke="white" stroke-opacity=".14"/>
    <rect y="176" width="266" height="56" rx="18" fill="white" fill-opacity=".05" stroke="white" stroke-opacity=".14"/>
    <rect y="264" width="266" height="56" rx="18" fill="white" fill-opacity=".05" stroke="white" stroke-opacity=".14"/>
    <path d="M133 56V88M133 144V176M133 232V264" stroke="#A5FFD6" stroke-opacity=".55" stroke-width="2"/>
    <text x="24" y="124" fill="#AFC3DD" font-family="Inter, Arial" font-size="17">Rule Set</text>
    <text x="24" y="212" fill="#AFC3DD" font-family="Inter, Arial" font-size="17">Batch Gen</text>
    <text x="24" y="300" fill="#AFC3DD" font-family="Inter, Arial" font-size="17">QA Report</text>
  </g>
  <g transform="translate(540 152)">
    <text x="0" y="0" fill="#A5FFD6" font-family="Inter, Arial" font-size="14" font-weight="800" letter-spacing="4">SELECTED WORK</text>
    <text x="0" y="72" fill="#FFFFFF" font-family="Inter, Arial" font-size="48" font-weight="900" letter-spacing="-2">MULTIMODAL VIDEO QA</text>
    <g transform="translate(0 134)">
      <rect width="500" height="160" rx="28" fill="rgba(255,255,255,.045)" stroke="rgba(255,255,255,.14)"/>
      <circle cx="70" cy="80" r="36" fill="#A5FFD6" fill-opacity=".16" stroke="#A5FFD6" stroke-opacity=".42"/>
      <circle cx="188" cy="80" r="36" fill="#7CA7FF" fill-opacity=".14" stroke="#7CA7FF" stroke-opacity=".36"/>
      <circle cx="306" cy="80" r="36" fill="#A5FFD6" fill-opacity=".12" stroke="#A5FFD6" stroke-opacity=".28"/>
      <circle cx="424" cy="80" r="36" fill="#7CA7FF" fill-opacity=".12" stroke="#7CA7FF" stroke-opacity=".28"/>
      <path d="M106 80H152M224 80H270M342 80H388" stroke="white" stroke-opacity=".22" stroke-width="2"/>
    </g>
    <g transform="translate(0 338)">
      <rect width="156" height="44" rx="22" fill="#A5FFD6" fill-opacity=".12" stroke="#A5FFD6" stroke-opacity=".3"/>
      <text x="20" y="28" fill="#DCEEFF" font-family="Inter, Arial" font-size="14" font-weight="800">I2V RULES</text>
      <rect x="174" width="156" height="44" rx="22" fill="#7CA7FF" fill-opacity=".12" stroke="#7CA7FF" stroke-opacity=".3"/>
      <text x="194" y="28" fill="#DCEEFF" font-family="Inter, Arial" font-size="14" font-weight="800">CAPTION QC</text>
      <rect x="348" width="166" height="44" rx="22" fill="white" fill-opacity=".055" stroke="white" stroke-opacity=".14"/>
      <text x="368" y="28" fill="#DCEEFF" font-family="Inter, Arial" font-size="14" font-weight="800">BADCASE LOOP</text>
    </g>
  </g>
  <defs>
    <radialGradient id="g1"><stop stop-color="#A5FFD6" stop-opacity=".5"/><stop offset="1" stop-color="#A5FFD6" stop-opacity="0"/></radialGradient>
    <radialGradient id="g2"><stop stop-color="#7CA7FF" stop-opacity=".45"/><stop offset="1" stop-color="#7CA7FF" stop-opacity="0"/></radialGradient>
    <pattern id="grid" width="60" height="60" patternUnits="userSpaceOnUse"><path d="M60 0H0V60" stroke="#fff" stroke-width="1"/></pattern>
  </defs>
</svg>